<svg xmlns="http://www.w3.org/2000/svg" viewBox="0 0 72 32" xml:space="preserve">
  <path d="M20.3 5.8c-3.3 0-5.9 2.7-5.9 5.9v10.5h-2.2V11.7c0-3.3-2.7-5.9-5.9-5.9C3 5.8.4 8.5.4 11.7V26h3.7V11.7c0-1.2 1-2.2 2.2-2.2s2.2 1 2.2 2.2V26h9.6V11.7c0-1.2 1-2.2 2.2-2.2s2.2 1 2.2 2.2V26h3.7V11.7c.1-3.3-2.6-5.9-5.9-5.9zm16.7 14c0 1.5-1.2 2.7-2.7 2.7-1.5 0-2.7-1.2-2.7-2.7v-8.1h-3.7v8.1c0 3.6 2.9 6.5 6.5 6.5s6.5-2.9 6.5-6.5v-8.1H37v8.1zM71.7 6H68v20h3.7V6zM42.3 26H46V15.5h5.5v-3.8h-9.2V26zm20.4-13.1c-1.2-.9-2.6-1.4-4.1-1.4-3.9 0-7 3.3-7 7.4 0 4.1 3.1 7.4 7 7.4 1.5 0 3-.5 4.1-1.4V26h3.7V11.7h-3.7v1.2zm0 6.1c-.1 2.1-1.7 3.8-3.7 3.8s-3.7-1.8-3.7-4 1.7-4 3.7-4 3.6 1.7 3.7 3.8v.4z" fill="#fff"/>
</svg>
