<svg width="79" height="32" viewBox="0 0 79 32" fill="none" xmlns="http://www.w3.org/2000/svg">
  <path fill-rule="evenodd" clip-rule="evenodd" d="M78.162 7.372c.085.334-.287.654-.48.9-1.62 2.04-3.416 4.455-5.575 6.006.156.812.073 1.89-.209 2.485.566.724 1.166 1.41 1.515 2.348-.46 2.45-1.528 4.35-3.235 5.593-1.666 1.211-3.918 1.69-6.472 2.279-4.939 1.142-13.065 2.268-16.729-.691-3.967 2.334-11.984 2.642-15.695-.139-2.638 3.35-13.043 3.055-11.495-3.59-1.93 1.466-4.783 3.486-7.505 4.627-3.157 1.322-9.135 1.173-8.538-3.314.072-.535.298-.837.551-1.313-.923-1.616-1.507-2.737-2.065-4.143C1.695 17.073.88 15.54.784 13.657c-.2-4.004 2.911-6.543 5.992-7.735 1.571-.608 2.848-1.49 4.405-1.931 2.326-.665 4.32.618 4.474 2.761 2.705-.805 5.998-1.693 9.57-1.173 2.843-2.218 8.397-.848 12.047.205.825.24 1.936.856 2.547.83.518-.021 1.453-.726 1.995-.967 2.561-1.14 5.91-2.352 9.57-1.726.693.117 1.327.485 2.065.55.5.047 1.113-.11 1.652-.136 8.555-.419 15.677 1.884 23.062 3.037Zm-23.955-.274c-.874.105-1.494 1.064-2.066 1.38.042-.004.081-.01.068-.07.105-.47.305-.846.345-1.38-4.582-1.618-9.04.748-12.322 2.555-2.624 1.444-4.965 3.141-6.61 4.832.595-1.015 1.225-2.02 1.929-2.968.713-.963 1.507-1.835 2.135-2.692-1.372-.36-2.748-.741-4.133-1.037-1.967-.42-4.703-1.115-6.332-.206-.472.262-.858.909-1.308.966-.374.049-.988-.224-1.447-.275-1.682-.188-3.23-.032-4.75.275-1.423.287-4.433.794-4.82 2.14-.246.864.305 1.702.208 2.557-.094.84-.9 1.953-1.308 2.623-.5.822-1.01 1.55-1.86 1.933-.515-2.573.046-4.86.483-7.042.27-1.345.813-2.721.345-4.075-1.313-.183-2.418.86-3.718 1.38-2.442.98-5.162 1.873-5.507 4.696-.195 1.59.4 2.6.826 3.73a27.297 27.297 0 0 0 3.374 6.352c-.365.672-1.223.847-1.31 1.793.39.552 1.198.625 1.997.622 2.31-.005 4.204-1.17 5.92-2.14 3.736-2.108 6.246-5.354 8.882-8.423.462-.54.843-1.19 1.446-1.52.591 2.728-.56 4.187-1.378 6.421-.316.861-1.312 3.556-.826 4.833.532 1.404 5.064 1.466 6.265.555.605-.46.846-1.497 1.171-2.141.415-.83.774-1.546 1.101-2.279.018 3.025 2.259 3.913 4.68 4.557 5.149 1.365 10.34-1.074 13.15-2.76-.352 2.24.516 2.465 2.272 2.83 4.54.94 9.111-.144 12.804-1.037 3.386-.817 6.108-1.395 6.61-4.765-.542-.47-1.896-.411-2.823-.275-2.73.401-5.374 1.785-9.018 1.518-.665-.048-2.101-.28-2.205-.69-.16-.636.978-1.082 1.931-1.242 2.73-.463 6.68.005 8.879-.83 1.055-.4 2.33-1.553 2.201-2.83-.083-.863-1.206-1.315-2.271-1.38-3.013-.19-5.166 1.575-8.327.966.395-.501.466-1.326.962-1.726 2.312-.049 4.559.411 6.747.276 3.042-.191 4.757-1.476 6.196-3.177.154-.183.54-.38.413-.69-5.284-.806-12.487-2.942-19.002-2.14Zm-10.465 5.314c-.339 1.55-1.048 3.322-1.445 5.04 2.188.032 4.496-.416 6.746-.552.304-.407.454-.97.62-1.519.451.64.769 1.84.344 2.762-3.417-.048-5.873 2.759-9.224 2.761-1.501.002-2.777-.863-2.066-2.555 1.003-2.384 3.492-4.05 5.025-5.937Zm7.986-2.555c.644.736 2.053.705 2.891 1.245-1.131.291-2.556.29-3.58.688.241-.633.458-1.29.69-1.932Z" fill="white"/>
</svg>
