<svg xmlns="http://www.w3.org/2000/svg" viewBox="0 0 111 32" xml:space="preserve">
  <path d="M9.5 12.6c0 1.1-.5 2-1.2 2.8-.8.8-2 1-2 1.7 0 1 1.5.7 3 2.1 1 1 1.6 2.3 1.6 3.8 0 2.9-2.4 5.3-5.4 5.3-3 0-5.4-2.3-5.4-5.3 0-1.5.6-2.8 1.6-3.8 1.5-1.5 3-1.2 3-2.1 0-.7-1.2-.9-2-1.7-.8-.7-1.2-1.7-1.2-2.8 0-2.2 1.8-3.9 3.9-3.9.4 0 .8.1 1.1.1.6 0 .9-.2.9-.6 0-.2-.1-.5-.1-.8 0-.8.6-1.4 1.3-1.4.7 0 1.3.6 1.3 1.3 0 .8-.6 1.1-1.1 1.3-.3.1-.6.3-.6.7 0 .7 1.3 1.4 1.3 3.3zm-.4 10.5c0-2.1-1.5-3.7-3.6-3.7s-3.6 1.7-3.6 3.7 1.5 3.7 3.6 3.7 3.6-1.7 3.6-3.7zM7.9 12.6c0-1.3-1.1-2.4-2.4-2.4-1.3 0-2.4 1.1-2.4 2.4S4.2 15 5.5 15c1.3 0 2.4-1.1 2.4-2.4zM17 8.9c.7 0 1.2.5 1.2 1.1 0 .6-.5 1.1-1.1 1.1-.7 0-1.1-.4-1.8-.4s-1.2.5-1.2 1.3v6.5c0 .5-.4.9-.9.9s-.9-.4-.9-.9V9.7c0-.5.4-.9.9-.9.9 0 .7.9 1.6.9.9 0 1.2-.8 2.2-.8zm1.9 5.2c0-3.1 2.2-5.4 5.1-5.4 2.7 0 4.9 2 4.9 4.7 0 .6-.4 1.1-1 1.1h-6.8c-.3 0-.4.1-.4.3 0 .5.4 1.5 1 2.1s1.5 1 2.7 1c.9 0 1.7-.3 2.3-.8.3-.1.5-.1.7-.1.4 0 .8.4.8.8 0 .2-.1.5-.3.6-.9.7-2.1 1.1-3.4 1.1-3.2 0-5.6-2.3-5.6-5.4zm7.4-3c-.6-.6-1.3-.9-2.2-.9-.9 0-1.7.4-2.3 1-.5.5-.8 1.1-.8 1.5 0 .2.1.3.4.3h5.4c.3 0 .4-.1.4-.3-.1-.5-.5-1.1-.9-1.6zm4.5 3c0-3.1 2.2-5.4 5.1-5.4 2.7 0 4.9 2 4.9 4.7 0 .6-.4 1.1-1 1.1H33c-.3 0-.4.1-.4.3 0 .5.4 1.5 1 2.1s1.5 1 2.7 1c.9 0 1.7-.3 2.3-.8.2-.1.4-.2.6-.2.4 0 .8.4.8.8 0 .2-.1.5-.3.6-.9.7-2.1 1.1-3.4 1.1-3.2.1-5.5-2.2-5.5-5.3zm7.4-3c-.6-.6-1.3-.9-2.2-.9-.9 0-1.7.4-2.3 1-.5.5-.8 1.1-.8 1.5 0 .2.1.3.4.3h5.4c.3 0 .4-.1.4-.3-.1-.5-.5-1.1-.9-1.6zm13.1 8.3c-.5 0-.9-.4-.9-.9v-5.6c0-1.5-1.2-2.6-2.7-2.6-1.5 0-2.7 1.1-2.7 2.6v5.6c0 .5-.4.9-.9.9s-.9-.4-.9-.9V9.7c0-.5.4-.9.9-.9.9 0 .8.8 1.3.8s1.1-.9 2.7-.9c2.3 0 4 1.9 4 4.2v5.6c0 .5-.4.9-.8.9zm11.9 0c-.5 0-.9-.4-.9-.9v-5.6c0-1.5-1.2-2.6-2.7-2.6-1.5 0-2.7 1.1-2.7 2.6v5.6c0 .5-.4.9-.9.9s-.9-.4-.9-.9v-14c0-.5.4-.9.9-.9.6 0 1 .4 1 .9v4.6c0 .2.1.4.4.4.5 0 1.1-.8 2.7-.8 2.3 0 4 1.9 4 4.2v5.6c0 .5-.4.9-.9.9zm3.3-5.3c0-3 2.4-5.4 5.5-5.4 3 0 5.5 2.4 5.5 5.4s-2.4 5.4-5.5 5.4c-3 0-5.5-2.4-5.5-5.4zm9.2 0c0-2.1-1.6-3.8-3.7-3.8s-3.7 1.7-3.7 3.8c0 2.1 1.6 3.8 3.7 3.8 2.1.1 3.7-1.7 3.7-3.8zm5.1-5.3c.5 0 .9.4.9.9v5.6c0 1.5 1.2 2.6 2.7 2.6 1.5 0 2.7-1.1 2.7-2.6V9.7c0-.5.4-.9.9-.9s.9.4.9.9v8.8c0 .5-.4.9-.9.9-.9 0-.8-.8-1.3-.8s-1.1.9-2.7.9c-2.3 0-4-1.9-4-4.2V9.7c-.1-.5.3-.9.8-.9zm11.2 10c-.4-.2-.7-.5-.7-1s.4-.8.8-.8c.5 0 .8.3 1.2.5.5.3 1.2.5 1.9.5 1.4 0 2.1-.6 2.1-1.4 0-1.1-1-1.3-2.5-1.7-1.8-.5-3.4-1-3.4-3 0-1.8 1.4-3.1 3.8-3.1 1 0 1.9.2 2.6.7.3.1.5.5.5.8 0 .5-.4.9-.9.9-.3 0-.6-.2-.9-.4-.3-.2-.8-.4-1.4-.4-1.4 0-2 .6-2 1.4 0 1.1 1 1.3 2.5 1.7 1.7.4 3.4 1 3.4 3 0 1.8-1.3 3.2-3.9 3.2-1.2-.2-2.3-.4-3.1-.9zm8.7-4.7c0-3.1 2.2-5.4 5.1-5.4 2.7 0 4.9 2 4.9 4.7 0 .6-.4 1.1-1 1.1H103c-.3 0-.4.1-.4.3 0 .5.4 1.5 1 2.1.6.6 1.5 1 2.7 1 .9 0 1.7-.3 2.3-.8.2-.1.4-.2.6-.2.4 0 .8.4.8.8 0 .2-.1.5-.3.6-.9.7-2.1 1.1-3.4 1.1-3.3.1-5.6-2.2-5.6-5.3zm7.4-3c-.6-.6-1.3-.9-2.2-.9-.9 0-1.7.4-2.3 1-.5.5-.8 1.1-.8 1.5 0 .2.1.3.4.3h5.4c.3 0 .4-.1.4-.3-.1-.5-.5-1.1-.9-1.6z" fill="#fff"/>
</svg>
