<svg xmlns="http://www.w3.org/2000/svg" viewBox="0 0 133 32" xml:space="preserve">
  <path d="M31.5 28v-1.2h-5.3v5.1h1.3V30h3v-1.2h-3V28h4zm12.3-1.2h-1.3v5.1h1.3v-5.1zm11 1.2h2.4v3.9h1.3V28h2.4v-1.2h-6V28zm21.5 1.8-4.1-3h-.4V32h1.3v-3l4.2 3.1h.4v-5.2h-1.3v2.9zm14 .1h2.8v-1.2h-2.8V28h3.9v-1.2H89v5.1h5.4v-1.2h-4.1v-.8zm18.5-1.2-1.4-.1c-.9 0-.9-.2-.9-.3 0-.3.5-.4 1.4-.4 1.2 0 1.7.2 2.2.5l.3.1.6-1.1-.3-.1c-.7-.4-1.5-.6-2.7-.6-1.8 0-2.8.6-2.8 1.7 0 1.3 1.5 1.4 2.1 1.5l1.4.1c1.1 0 1.1.2 1.1.4 0 .3-.6.5-1.6.5-1.2 0-1.9-.3-2.3-.6l-.2-.2-.7 1 .2.2c.7.5 1.7.7 3 .7 1.9 0 2.9-.6 2.9-1.8-.1-1.4-1.6-1.5-2.3-1.5zm16.6 0-1.4-.1c-.9 0-.9-.2-.9-.3 0-.3.5-.4 1.4-.4 1.2 0 1.7.2 2.2.5l.3.1.6-1.1-.3-.1c-.7-.4-1.5-.6-2.7-.6-1.8 0-2.8.6-2.8 1.7 0 1.3 1.5 1.4 2.1 1.5l1.4.1c1.1.1 1.1.2 1.1.4 0 .3-.6.5-1.6.5-1.2 0-1.9-.3-2.3-.6l-.2-.2-.7 1 .2.2c.7.5 1.7.7 3 .7 1.9 0 2.9-.6 2.9-1.8-.1-1.4-1.6-1.5-2.3-1.5zM23.5 11h2.6v1.1l.1-.2.2-.2c.5-.6 1.3-1 2.1-1h.3v2.4c-.1 0-.3-.1-.4-.1-1.5-.1-2.2.6-2.2 2.1v5.5h-2.7V11zm8.5 3.8c.4-.1.9-.1 1.3 0 .9.1 1.5.3 2 .7v-.7c0-1-.6-1.6-2.2-1.8-.6-.1-1.5-.1-2.6.1-.2 0-.3 0-.4.1v-2.1c.6-.1 1-.1 1.6-.2 4.5-.2 6.3 1.3 6.3 4.1v5.7h-2.7v-.9c-.1.1-.2.2-.3.2-.7.5-1.5.8-2.6.8-2.3 0-3.7-1.4-3.6-3 0-1.5 1.1-2.7 3.2-3zm1.1 4.3h.7c.4-.1.7-.2 1-.3.7-.4.8-1.3.2-1.8-.3-.2-.7-.4-1.2-.5-1.4-.2-2.3.5-2.3 1.3 0 .7.5 1.3 1.6 1.3zM40 11h2.6v1c.1-.1.2-.1.2-.2.8-.7 1.5-1 2.5-1 2.4-.1 3.8 1.5 3.8 4.3v5.6h-2.7v-5.2c0-1.4-.5-2.1-1.5-2.4-1.4-.3-2.2.4-2.2 1.9v5.7H40V11zm10.8 4c.2-1.3.9-2.4 1.9-3.2 1.9-1.3 4.3-1.1 5.5.3V11h2.6v9.6c0 2.7-1.8 4.4-5.5 4.4-.6 0-1.1 0-1.7-.1v-2.4c.5.1 1 .2 1.6.2 2 0 2.9-.9 2.9-2.3v-.7c-1 1.1-2.9 1.6-4.7.7-1.5-.7-2.4-2-2.6-3.7 0-.3-.1-.6-.1-.9 0-.2 0-.5.1-.8m2.7 1.3c.2 1.6 1.3 2.5 2.8 2.3 1-.2 1.7-1 1.9-2.3v-.9c-.2-1.5-1.1-2.3-2.4-2.3-1.3 0-2.2.8-2.4 2.3v.4c.1.2.1.3.1.5zM72.9 11H74V8.6l1.4-.6v3H78l-.3 1h-2.3v6c0 1.1.7 1.8 2.2 1.7h.3v1.1h-.3c-2.8.2-3.6-.8-3.6-3.6V12h-1.3l.2-1zm6.2-3.8 1.4-.3v5.6c.2-.2.4-.5.6-.7.5-.5 1.2-.8 1.9-1 2.8-.6 4.9 1.2 4.9 4.1v5.6h-1.4v-5.1c0-2.4-1.1-3.6-3-3.5-1.9 0-3 1.3-3 3.3v5.4h-1.4V7.2zm10.8 6.7c.7-1.6 2.1-2.7 3.8-3 3-.5 5.6 1.7 5.7 4.7v.6H91v.3c.1 1.2.8 2.3 1.9 2.9 1.5.8 3.2.5 4.5-.8l.2-.2 1.1.7c-.3.4-.6.7-1 1-1.3.9-2.8 1.2-4.4.8-2.8-.8-4.2-3.2-3.7-5.9.1-.5.2-.8.3-1.1m8.1 1.2v-.4c0-.2 0-.2-.1-.4-.4-1.4-1.7-2.4-3.2-2.4-1.6 0-2.9.9-3.5 2.5-.1.2-.1.5-.1.7H98zm9-4.3c2.6.4 4.3 2.4 4.3 5.1s-1.6 4.7-4.3 5.1c-3.5.5-6.1-1.8-6.1-5.1 0-3.4 2.6-5.6 6.1-5.1zm-1.5 8.8c.4.1.8.1 1.3 0 2.1-.4 3.4-2.2 3-4.6-.1-.8-.5-1.5-1.1-2.1-.7-.6-1.5-1-2.6-1-1 0-1.9.3-2.6 1-.7.7-1.2 1.7-1.2 2.9.1 2 1.3 3.5 3.2 3.8m7.7-8.6h1.4v1.4l.2-.2c.7-.9 1.5-1.4 2.6-1.4h.4v1.3h-.4c-.9 0-1.6.3-2.1.8-.4.5-.6 1-.6 1.9v5.9h-1.4l-.1-9.7zm5.7 0h1.4v5.3c0 2 .7 3 2.3 3.3.4.1.9.1 1.3 0 1.6-.3 2.4-1.3 2.4-3V11h1.4v9.3c0 2.7-1.9 4.4-5.9 4.2-.2 0-.5 0-.7-.1v-1.2c.2 0 .4.1.7.1 3.1.2 4.5-1.1 4.5-3.2v-.9c-.1.1-.2.2-.2.3-.8.9-1.8 1.4-3.2 1.4-2.3 0-3.8-1.4-3.9-3.5v-.8l-.1-5.6zm11.5-3.5c1 0 1.8.8 1.8 1.7 0 1-.8 1.8-1.8 1.8s-1.8-.8-1.8-1.8.8-1.7 1.8-1.7zm-.1.3c-.8 0-1.3.6-1.3 1.4s.6 1.4 1.4 1.4c.8 0 1.3-.6 1.3-1.4 0-.8-.6-1.4-1.4-1.4zm-.2 2.3h-.4V8.4c.2 0 .4-.1.7-.1.3 0 .5.1.6.1.1.1.2.2.2.4s-.2.4-.4.4c.2.1.3.2.3.4.1.3.1.4.1.4h-.4c-.1-.1-.1-.2-.1-.4s-.1-.3-.4-.3h-.2v.8zm0-1h.2c.2 0 .4-.1.4-.3 0-.2-.1-.3-.4-.3h-.2v.6zm-57.8 7.5v-.8c-.1-2.8-2-4.8-4.8-5-.7 0-1.3 0-2 .3-1.7.6-2.9 2-3.2 3.7-.6 2.6.8 5.2 3.7 6 2 .6 3.8 0 5.2-1.5.1-.1.1-.2.2-.3l-2.1-1.4-.1.1c-.4.4-.8.7-1.2.8-.7.2-1.4.2-1.9-.1-.8-.4-1.2-1.1-1.1-1.8h7.3zm-4.6-3.8c1.2 0 2.1.8 2.2 2v.1h-4.7c0-.1.1-.3.1-.4.4-1.1 1.3-1.8 2.4-1.7zm-44.7 9c-1.8.3-2.7-1.3-2.1-2.6.5-1.1.7-2.3.7-3.5 0-1.2-.2-2.4-.7-3.5-.4-1.1.3-2.8 2.1-2.6 1 .1 1.7-.8 1.7-2 0-1.3-.8-2.5-1.7-2.7-1-.3-1.9.6-1.9 2 0 2.4-1.3 3.4-2.4 2.5-.9-.8-2-1.3-3.3-1.5-1.3-.2-2.6 0-3.7.5-.1.1-.2.1-.4.1C10 8.7 8 7.2 8 4.3 8 2.5 6.5.7 4.5.1 2.4-.5.5.7.5 2.7s1.9 3.9 4 4.2c3 .4 4.5 2.2 4.2 3.6 0 .2-.1.3-.2.5-.8 1.3-1.3 2.9-1.3 4.7 0 1.7.5 3.2 1.2 4.5.1.1.1.3.2.5.2 1.3-1 3.4-4.1 3.8-2.1.3-4 2.2-4 4.2s1.9 3.2 4 2.6c2-.5 3.5-2.4 3.5-4.2 0-2.9 1.7-4.5 3.2-4.2.1 0 .2.1.3.1 1.2.6 2.5.8 3.9.6 1.3-.2 2.3-.7 3.3-1.5.9-.7 2.4 0 2.4 2.4 0 1.4.9 2.3 1.9 2 1-.3 1.7-1.5 1.7-2.7 0-1.2-.7-2.1-1.7-2zm-7.6-1.1c-2.6.3-4.9-1.9-4.9-4.9 0-3 2.3-5.2 4.9-4.9 2.3.3 4 2.5 4 4.9 0 2.4-1.7 4.6-4 4.9z" fill="#fff"/>
</svg>
