<svg xmlns="http://www.w3.org/2000/svg" viewBox="0 0 89 32" xml:space="preserve">
  <path d="M22.5 29.2 71.4 25H18.3l4.2 4.2zM82.8 7.3c-1 0-2 .3-2.8.9v-.6h-3.3v14.6H80v-8.5c0-.4 0-.7.2-1.1.1-.4.3-.7.6-.9.3-.3.6-.5.9-.6.3-.1.7-.2 1.1-.2.4 0 .7.1 1.1.2.3.1.6.4.9.6.3.3.4.6.6.9.1.4.2.7.2 1.1v8.6h3.3v-8.6c-.2-3.6-2.6-6.4-6.1-6.4zm-13.7-.1c-3.8 0-6.5 3.4-6.5 7.7 0 4.5 3.4 7.7 6.8 7.7 1.7 0 3.9-.6 5.8-3.3l-2.9-1.7c-2.2 3.3-6 1.7-6.4-1.7h9.4c.9-5.2-2.5-8.7-6.2-8.7zm-3 5.8c.7-3.4 5.2-3.6 5.9 0h-5.9zm-10.5 4.3c0 .7.1 1.3.3 2 .2.6.6 1.2 1 1.7.5.5 1 .9 1.6 1.1.6.3 1.3.4 1.9.4 1.1 0 2.2-.4 3.2-.9l-2.1-2.9c-.3.2-.7.4-1.1.4-.2 0-.4-.1-.6-.2-.2-.1-.4-.2-.5-.4-.1-.2-.3-.4-.3-.6-.1-.2-.1-.4-.1-.7v-6.3h2.8V7.6h-2.8V3.9h-3.3v3.6h-1.7V11h1.7v6.3zm-9 5.2c1 0 2-.3 2.8-.9v.5h3.3V7.6h-3.3v8.6c0 .4 0 .7-.2 1.1-.1.4-.3.7-.6.9-.3.3-.6.5-.9.6-.3.1-.7.2-1.1.2-.4 0-.7-.1-1.1-.2-.3-.1-.6-.4-.9-.6-.3-.3-.4-.6-.6-.9-.1-.4-.2-.7-.2-1.1V7.6h-3.3v8.6c.2 3.5 2.6 6.3 6.1 6.3zm-14.9-6.3 4.9 6h4.6l-6.5-7.8 5.6-6.9h-4.6l-4 5.1V2.8h-3.3v19.5h3.3v-6.1zm-8.5 5.3v.6h3.3V7.6h-3.3v.6c-.9-.7-2-1-3.1-1-3.7 0-6.6 3.4-6.6 7.7 0 4.2 2.8 7.7 6.6 7.7 1.1-.1 2.2-.4 3.1-1.1zm-6.3-6.6c0-2.3 1.3-4.1 3.2-4.1 1.9 0 3.1 1.8 3.1 4.1S21.9 19 20.1 19c-1.9.1-3.2-1.8-3.2-4.1zm-4.4-4.7c0-1.7-.7-3.3-1.8-4.4-1.2-1.2-2.8-1.9-4.4-1.9H.7v18.2h3.4v-5.6h2.4l4.2 5.6H15l-5.1-6.8c.8-.6 1.5-1.4 1.9-2.2.5-.9.7-1.9.7-2.9zm-6.2 2.9H4.1V7.4h2.2c.7 0 1.5.3 2 .8s.8 1.3.8 2c0 .8-.3 1.5-.8 2-.5.6-1.2.9-2 .9z" fill="#fff"/>
</svg>
