<svg xmlns="http://www.w3.org/2000/svg" viewBox="0 0 630 630"><defs><style>.cls-1{fill:#4d4d4d;}</style></defs><g id="Layer_2" data-name="Layer 2"><g id="Layer_1-2" data-name="Layer 1"><path class="cls-1" d="M315,1A313.91,313.91,0,0,1,537,537,314,314,0,1,1,192.78,25.68,311.9,311.9,0,0,1,315,1m0-1C141,0,0,141,0,315S141,630,315,630,630,489,630,315,489,0,315,0Z"/><path class="cls-1" d="M315,64a250.13,250.13,0,1,1-97.7,19.72A249.54,249.54,0,0,1,315,64m0-1C175.82,63,63,175.82,63,315S175.82,567,315,567,567,454.18,567,315,454.18,63,315,63Z"/><path class="cls-1" d="M315,154a161,161,0,1,1-113.84,47.16A159.93,159.93,0,0,1,315,154m0-1A162,162,0,1,0,477,315,162,162,0,0,0,315,153Z"/><path class="cls-1" d="M315,233a82,82,0,1,1-82,82,82.1,82.1,0,0,1,82-82m0-1a83,83,0,1,0,83,83,83,83,0,0,0-83-83Z"/></g></g></svg>