<svg xmlns="http://www.w3.org/2000/svg" viewBox="0 0 25 25" xml:space="preserve">
  <path d="M12.5.8C19 .8 24.2 6 24.2 12.5S19 24.2 12.5 24.2.8 19 .8 12.5 6 .8 12.5.8zm3.6 11.7c0 3.5-.5 6.5-1.3 8.7-.4 1.1-.9 1.9-1.3 2.4s-.8.6-1 .6c-.2 0-.5-.1-1-.6-.4-.5-.9-1.3-1.3-2.4-.8-2.2-1.3-5.2-1.3-8.7s.5-6.5 1.3-8.7c.4-1.1.9-1.9 1.3-2.4s.8-.6 1-.6c.2 0 .5.1 1 .6.4.5.9 1.3 1.3 2.4.8 2.2 1.3 5.2 1.3 8.7zm-3.6 3.6c-3.5 0-6.5-.5-8.7-1.3-1.1-.4-1.9-.9-2.4-1.3s-.6-.8-.6-1c0-.2.1-.5.6-1 .5-.4 1.3-.9 2.4-1.3C6 9.4 9 8.9 12.5 8.9s6.5.5 8.7 1.3c1.1.4 1.9.9 2.4 1.3s.6.8.6 1c0 .2-.1.5-.6 1-.5.4-1.3.9-2.4 1.3-2.2.8-5.2 1.3-8.7 1.3z" fill="none" stroke="#5a5a5a" stroke-width="1.5"/>
</svg>
